<mxfile host="app.diagrams.net" modified="2024-01-02T07:44:21.677Z" agent="Mozilla/5.0 (Windows NT 10.0; Win64; x64) AppleWebKit/537.36 (KHTML, like Gecko) Chrome/120.0.0.0 Safari/537.36 Edg/120.0.0.0" etag="_yIA4YSrGs2HUeu8Nqsf" version="22.1.16" type="github">
  <diagram name="페이지-1" id="W0HY6kWPY_1lT_Q2Txw5">
    <mxGraphModel dx="1557" dy="923" grid="1" gridSize="10" guides="1" tooltips="1" connect="1" arrows="1" fold="1" page="1" pageScale="1" pageWidth="827" pageHeight="1169" math="0" shadow="0">
      <root>
        <mxCell id="0" />
        <mxCell id="1" parent="0" />
        <mxCell id="Z0NAfCsCloOLfnVxOBBv-1" value="&lt;b&gt;&lt;font style=&quot;font-size: 14px;&quot;&gt;고객&lt;/font&gt;&lt;/b&gt;" style="whiteSpace=wrap;html=1;align=center;" vertex="1" parent="1">
          <mxGeometry x="264" y="320" width="100" height="40" as="geometry" />
        </mxCell>
        <mxCell id="Z0NAfCsCloOLfnVxOBBv-2" value="상세주소" style="ellipse;whiteSpace=wrap;html=1;align=center;" vertex="1" parent="1">
          <mxGeometry x="10" y="350" width="100" height="40" as="geometry" />
        </mxCell>
        <mxCell id="Z0NAfCsCloOLfnVxOBBv-4" value="고객명" style="ellipse;whiteSpace=wrap;html=1;align=center;" vertex="1" parent="1">
          <mxGeometry x="150" y="250" width="100" height="40" as="geometry" />
        </mxCell>
        <mxCell id="Z0NAfCsCloOLfnVxOBBv-5" value="&lt;font color=&quot;#ff0000&quot;&gt;주소&lt;/font&gt;" style="ellipse;whiteSpace=wrap;html=1;align=center;" vertex="1" parent="1">
          <mxGeometry x="120" y="320" width="100" height="40" as="geometry" />
        </mxCell>
        <mxCell id="Z0NAfCsCloOLfnVxOBBv-6" value="기본주소" style="ellipse;whiteSpace=wrap;html=1;align=center;" vertex="1" parent="1">
          <mxGeometry x="10" y="290" width="100" height="40" as="geometry" />
        </mxCell>
        <mxCell id="Z0NAfCsCloOLfnVxOBBv-8" value="지역명" style="ellipse;whiteSpace=wrap;html=1;align=center;" vertex="1" parent="1">
          <mxGeometry x="80" y="580" width="100" height="40" as="geometry" />
        </mxCell>
        <mxCell id="Z0NAfCsCloOLfnVxOBBv-9" value="제품명" style="ellipse;whiteSpace=wrap;html=1;align=center;" vertex="1" parent="1">
          <mxGeometry x="727" y="370" width="100" height="40" as="geometry" />
        </mxCell>
        <mxCell id="Z0NAfCsCloOLfnVxOBBv-10" value="제품구분" style="ellipse;whiteSpace=wrap;html=1;align=center;" vertex="1" parent="1">
          <mxGeometry x="800" y="425" width="100" height="40" as="geometry" />
        </mxCell>
        <mxCell id="Z0NAfCsCloOLfnVxOBBv-11" value="가격" style="ellipse;whiteSpace=wrap;html=1;align=center;" vertex="1" parent="1">
          <mxGeometry x="750" y="540" width="100" height="40" as="geometry" />
        </mxCell>
        <mxCell id="Z0NAfCsCloOLfnVxOBBv-12" value="가입일" style="ellipse;whiteSpace=wrap;html=1;align=center;" vertex="1" parent="1">
          <mxGeometry x="160" y="410" width="100" height="40" as="geometry" />
        </mxCell>
        <mxCell id="Z0NAfCsCloOLfnVxOBBv-14" value="&lt;b&gt;&lt;font style=&quot;font-size: 14px;&quot;&gt;제품&lt;/font&gt;&lt;/b&gt;" style="whiteSpace=wrap;html=1;align=center;" vertex="1" parent="1">
          <mxGeometry x="620" y="450" width="100" height="40" as="geometry" />
        </mxCell>
        <mxCell id="Z0NAfCsCloOLfnVxOBBv-15" value="&lt;b&gt;&lt;font style=&quot;font-size: 14px;&quot;&gt;지역&lt;/font&gt;&lt;/b&gt;" style="whiteSpace=wrap;html=1;align=center;" vertex="1" parent="1">
          <mxGeometry x="240" y="600" width="100" height="40" as="geometry" />
        </mxCell>
        <mxCell id="Z0NAfCsCloOLfnVxOBBv-16" value="전화번호" style="ellipse;whiteSpace=wrap;html=1;align=center;fontStyle=4;" vertex="1" parent="1">
          <mxGeometry x="260" y="210" width="100" height="40" as="geometry" />
        </mxCell>
        <mxCell id="Z0NAfCsCloOLfnVxOBBv-17" value="이메일" style="ellipse;whiteSpace=wrap;html=1;align=center;fontStyle=4;" vertex="1" parent="1">
          <mxGeometry x="380" y="230" width="100" height="40" as="geometry" />
        </mxCell>
        <mxCell id="Z0NAfCsCloOLfnVxOBBv-18" value="&lt;font color=&quot;#ff0000&quot;&gt;&lt;b&gt;고객코드&lt;/b&gt;&lt;/font&gt;" style="ellipse;whiteSpace=wrap;html=1;align=center;fontStyle=4;" vertex="1" parent="1">
          <mxGeometry x="420" y="280" width="100" height="40" as="geometry" />
        </mxCell>
        <mxCell id="Z0NAfCsCloOLfnVxOBBv-19" value="&lt;font color=&quot;#ff0000&quot;&gt;&lt;b&gt;지역코드&lt;/b&gt;&lt;/font&gt;" style="ellipse;whiteSpace=wrap;html=1;align=center;fontStyle=4;" vertex="1" parent="1">
          <mxGeometry x="90" y="700" width="100" height="40" as="geometry" />
        </mxCell>
        <mxCell id="Z0NAfCsCloOLfnVxOBBv-22" value="&lt;font color=&quot;#ff0000&quot;&gt;&lt;b&gt;제품색상&lt;/b&gt;&lt;/font&gt;" style="ellipse;shape=doubleEllipse;margin=3;whiteSpace=wrap;html=1;align=center;" vertex="1" parent="1">
          <mxGeometry x="800" y="480" width="100" height="40" as="geometry" />
        </mxCell>
        <mxCell id="Z0NAfCsCloOLfnVxOBBv-23" value="" style="endArrow=none;html=1;rounded=0;entryX=0.5;entryY=0;entryDx=0;entryDy=0;" edge="1" parent="1" source="Z0NAfCsCloOLfnVxOBBv-4" target="Z0NAfCsCloOLfnVxOBBv-1">
          <mxGeometry relative="1" as="geometry">
            <mxPoint x="210" y="288.46" as="sourcePoint" />
            <mxPoint x="370" y="288.46" as="targetPoint" />
          </mxGeometry>
        </mxCell>
        <mxCell id="Z0NAfCsCloOLfnVxOBBv-24" value="" style="endArrow=none;html=1;rounded=0;entryX=0.5;entryY=0;entryDx=0;entryDy=0;" edge="1" parent="1" source="Z0NAfCsCloOLfnVxOBBv-16" target="Z0NAfCsCloOLfnVxOBBv-1">
          <mxGeometry relative="1" as="geometry">
            <mxPoint x="300" y="510" as="sourcePoint" />
            <mxPoint x="390" y="150" as="targetPoint" />
          </mxGeometry>
        </mxCell>
        <mxCell id="Z0NAfCsCloOLfnVxOBBv-25" value="" style="endArrow=none;html=1;rounded=0;entryX=0.5;entryY=0;entryDx=0;entryDy=0;exitX=0;exitY=1;exitDx=0;exitDy=0;" edge="1" parent="1" source="Z0NAfCsCloOLfnVxOBBv-17" target="Z0NAfCsCloOLfnVxOBBv-1">
          <mxGeometry relative="1" as="geometry">
            <mxPoint x="370" y="640" as="sourcePoint" />
            <mxPoint x="530" y="640" as="targetPoint" />
          </mxGeometry>
        </mxCell>
        <mxCell id="Z0NAfCsCloOLfnVxOBBv-26" value="" style="endArrow=none;html=1;rounded=0;entryX=0.5;entryY=0;entryDx=0;entryDy=0;exitX=0;exitY=0.5;exitDx=0;exitDy=0;" edge="1" parent="1" source="Z0NAfCsCloOLfnVxOBBv-18" target="Z0NAfCsCloOLfnVxOBBv-1">
          <mxGeometry relative="1" as="geometry">
            <mxPoint x="380" y="650" as="sourcePoint" />
            <mxPoint x="540" y="650" as="targetPoint" />
          </mxGeometry>
        </mxCell>
        <mxCell id="Z0NAfCsCloOLfnVxOBBv-28" value="" style="endArrow=none;html=1;rounded=0;entryX=0;entryY=0.5;entryDx=0;entryDy=0;exitX=1;exitY=0.5;exitDx=0;exitDy=0;" edge="1" parent="1" source="Z0NAfCsCloOLfnVxOBBv-5" target="Z0NAfCsCloOLfnVxOBBv-1">
          <mxGeometry relative="1" as="geometry">
            <mxPoint x="400" y="670" as="sourcePoint" />
            <mxPoint x="560" y="670" as="targetPoint" />
          </mxGeometry>
        </mxCell>
        <mxCell id="Z0NAfCsCloOLfnVxOBBv-30" value="" style="endArrow=none;html=1;rounded=0;entryX=0;entryY=0.5;entryDx=0;entryDy=0;exitX=0.5;exitY=0;exitDx=0;exitDy=0;" edge="1" parent="1" source="Z0NAfCsCloOLfnVxOBBv-12" target="Z0NAfCsCloOLfnVxOBBv-1">
          <mxGeometry relative="1" as="geometry">
            <mxPoint x="420" y="690" as="sourcePoint" />
            <mxPoint x="580" y="690" as="targetPoint" />
          </mxGeometry>
        </mxCell>
        <mxCell id="Z0NAfCsCloOLfnVxOBBv-31" value="" style="endArrow=none;html=1;rounded=0;entryX=0;entryY=0.5;entryDx=0;entryDy=0;exitX=1;exitY=0.5;exitDx=0;exitDy=0;" edge="1" parent="1" source="Z0NAfCsCloOLfnVxOBBv-6" target="Z0NAfCsCloOLfnVxOBBv-5">
          <mxGeometry relative="1" as="geometry">
            <mxPoint x="430" y="700" as="sourcePoint" />
            <mxPoint x="590" y="700" as="targetPoint" />
          </mxGeometry>
        </mxCell>
        <mxCell id="Z0NAfCsCloOLfnVxOBBv-32" value="" style="endArrow=none;html=1;rounded=0;entryX=0;entryY=0.5;entryDx=0;entryDy=0;exitX=1;exitY=0.5;exitDx=0;exitDy=0;" edge="1" parent="1" source="Z0NAfCsCloOLfnVxOBBv-2" target="Z0NAfCsCloOLfnVxOBBv-5">
          <mxGeometry relative="1" as="geometry">
            <mxPoint x="440" y="710" as="sourcePoint" />
            <mxPoint x="600" y="710" as="targetPoint" />
          </mxGeometry>
        </mxCell>
        <mxCell id="Z0NAfCsCloOLfnVxOBBv-33" value="" style="endArrow=none;html=1;rounded=0;entryX=0;entryY=0.5;entryDx=0;entryDy=0;exitX=1;exitY=1;exitDx=0;exitDy=0;" edge="1" parent="1" source="Z0NAfCsCloOLfnVxOBBv-8" target="Z0NAfCsCloOLfnVxOBBv-15">
          <mxGeometry relative="1" as="geometry">
            <mxPoint x="450" y="720" as="sourcePoint" />
            <mxPoint x="610" y="720" as="targetPoint" />
          </mxGeometry>
        </mxCell>
        <mxCell id="Z0NAfCsCloOLfnVxOBBv-34" value="" style="endArrow=none;html=1;rounded=0;entryX=0;entryY=0.5;entryDx=0;entryDy=0;exitX=0.5;exitY=0;exitDx=0;exitDy=0;" edge="1" parent="1" source="Z0NAfCsCloOLfnVxOBBv-19" target="Z0NAfCsCloOLfnVxOBBv-15">
          <mxGeometry relative="1" as="geometry">
            <mxPoint x="460" y="730" as="sourcePoint" />
            <mxPoint x="620" y="730" as="targetPoint" />
          </mxGeometry>
        </mxCell>
        <mxCell id="Z0NAfCsCloOLfnVxOBBv-36" value="" style="endArrow=none;html=1;rounded=0;entryX=1;entryY=0.5;entryDx=0;entryDy=0;exitX=0;exitY=0;exitDx=0;exitDy=0;" edge="1" parent="1" source="Z0NAfCsCloOLfnVxOBBv-11" target="Z0NAfCsCloOLfnVxOBBv-14">
          <mxGeometry relative="1" as="geometry">
            <mxPoint x="480" y="750" as="sourcePoint" />
            <mxPoint x="640" y="750" as="targetPoint" />
          </mxGeometry>
        </mxCell>
        <mxCell id="Z0NAfCsCloOLfnVxOBBv-37" value="" style="endArrow=none;html=1;rounded=0;entryX=1;entryY=0.5;entryDx=0;entryDy=0;exitX=0;exitY=0.5;exitDx=0;exitDy=0;" edge="1" parent="1" source="Z0NAfCsCloOLfnVxOBBv-22" target="Z0NAfCsCloOLfnVxOBBv-14">
          <mxGeometry relative="1" as="geometry">
            <mxPoint x="490" y="760" as="sourcePoint" />
            <mxPoint x="650" y="760" as="targetPoint" />
          </mxGeometry>
        </mxCell>
        <mxCell id="Z0NAfCsCloOLfnVxOBBv-38" value="" style="endArrow=none;html=1;rounded=0;entryX=1;entryY=0.5;entryDx=0;entryDy=0;exitX=0;exitY=0.5;exitDx=0;exitDy=0;" edge="1" parent="1" source="Z0NAfCsCloOLfnVxOBBv-10" target="Z0NAfCsCloOLfnVxOBBv-14">
          <mxGeometry relative="1" as="geometry">
            <mxPoint x="500" y="770" as="sourcePoint" />
            <mxPoint x="660" y="770" as="targetPoint" />
          </mxGeometry>
        </mxCell>
        <mxCell id="Z0NAfCsCloOLfnVxOBBv-39" value="" style="endArrow=none;html=1;rounded=0;entryX=0.5;entryY=0;entryDx=0;entryDy=0;exitX=0;exitY=1;exitDx=0;exitDy=0;" edge="1" parent="1" source="Z0NAfCsCloOLfnVxOBBv-9" target="Z0NAfCsCloOLfnVxOBBv-14">
          <mxGeometry relative="1" as="geometry">
            <mxPoint x="510" y="780" as="sourcePoint" />
            <mxPoint x="670" y="780" as="targetPoint" />
          </mxGeometry>
        </mxCell>
        <mxCell id="Z0NAfCsCloOLfnVxOBBv-41" value="" style="endArrow=none;html=1;rounded=0;entryX=0.5;entryY=0;entryDx=0;entryDy=0;exitX=0.5;exitY=1;exitDx=0;exitDy=0;" edge="1" parent="1" source="Z0NAfCsCloOLfnVxOBBv-45" target="Z0NAfCsCloOLfnVxOBBv-14">
          <mxGeometry relative="1" as="geometry">
            <mxPoint x="520" y="520" as="sourcePoint" />
            <mxPoint x="690" y="800" as="targetPoint" />
          </mxGeometry>
        </mxCell>
        <mxCell id="Z0NAfCsCloOLfnVxOBBv-45" value="&lt;span style=&quot;border-bottom: 1px dotted&quot;&gt;&lt;font color=&quot;#ff0000&quot;&gt;&lt;b&gt;제품코드&lt;/b&gt;&lt;/font&gt;&lt;/span&gt;" style="ellipse;whiteSpace=wrap;html=1;align=center;" vertex="1" parent="1">
          <mxGeometry x="620" y="340" width="100" height="40" as="geometry" />
        </mxCell>
        <mxCell id="Z0NAfCsCloOLfnVxOBBv-46" value="관리" style="shape=rhombus;perimeter=rhombusPerimeter;whiteSpace=wrap;html=1;align=center;" vertex="1" parent="1">
          <mxGeometry x="230" y="490" width="120" height="60" as="geometry" />
        </mxCell>
        <mxCell id="Z0NAfCsCloOLfnVxOBBv-47" value="구매" style="shape=rhombus;perimeter=rhombusPerimeter;whiteSpace=wrap;html=1;align=center;" vertex="1" parent="1">
          <mxGeometry x="420" y="390" width="120" height="60" as="geometry" />
        </mxCell>
        <mxCell id="Z0NAfCsCloOLfnVxOBBv-49" value="수량" style="ellipse;whiteSpace=wrap;html=1;align=center;" vertex="1" parent="1">
          <mxGeometry x="490" y="540" width="100" height="40" as="geometry" />
        </mxCell>
        <mxCell id="Z0NAfCsCloOLfnVxOBBv-50" value="구매일자" style="ellipse;whiteSpace=wrap;html=1;align=center;" vertex="1" parent="1">
          <mxGeometry x="380" y="540" width="100" height="40" as="geometry" />
        </mxCell>
        <mxCell id="Z0NAfCsCloOLfnVxOBBv-51" value="" style="endArrow=none;html=1;rounded=0;entryX=0.5;entryY=1;entryDx=0;entryDy=0;exitX=0.5;exitY=0;exitDx=0;exitDy=0;" edge="1" parent="1" source="Z0NAfCsCloOLfnVxOBBv-15" target="Z0NAfCsCloOLfnVxOBBv-46">
          <mxGeometry relative="1" as="geometry">
            <mxPoint x="180" y="579.23" as="sourcePoint" />
            <mxPoint x="340" y="579.23" as="targetPoint" />
          </mxGeometry>
        </mxCell>
        <mxCell id="Z0NAfCsCloOLfnVxOBBv-52" value="1" style="resizable=0;html=1;whiteSpace=wrap;align=right;verticalAlign=bottom;" connectable="0" vertex="1" parent="Z0NAfCsCloOLfnVxOBBv-51">
          <mxGeometry x="1" relative="1" as="geometry" />
        </mxCell>
        <mxCell id="Z0NAfCsCloOLfnVxOBBv-53" value="" style="endArrow=none;html=1;rounded=0;exitX=0.5;exitY=1;exitDx=0;exitDy=0;entryX=0.5;entryY=0;entryDx=0;entryDy=0;" edge="1" parent="1" source="Z0NAfCsCloOLfnVxOBBv-1" target="Z0NAfCsCloOLfnVxOBBv-46">
          <mxGeometry relative="1" as="geometry">
            <mxPoint x="330" y="460" as="sourcePoint" />
            <mxPoint x="490" y="460" as="targetPoint" />
          </mxGeometry>
        </mxCell>
        <mxCell id="Z0NAfCsCloOLfnVxOBBv-54" value="N" style="resizable=0;html=1;whiteSpace=wrap;align=right;verticalAlign=bottom;" connectable="0" vertex="1" parent="Z0NAfCsCloOLfnVxOBBv-53">
          <mxGeometry x="1" relative="1" as="geometry" />
        </mxCell>
        <mxCell id="Z0NAfCsCloOLfnVxOBBv-59" value="" style="endArrow=none;html=1;rounded=0;entryX=0.5;entryY=0;entryDx=0;entryDy=0;exitX=0.5;exitY=1;exitDx=0;exitDy=0;" edge="1" parent="1" source="Z0NAfCsCloOLfnVxOBBv-47" target="Z0NAfCsCloOLfnVxOBBv-50">
          <mxGeometry relative="1" as="geometry">
            <mxPoint x="330" y="460" as="sourcePoint" />
            <mxPoint x="490" y="460" as="targetPoint" />
          </mxGeometry>
        </mxCell>
        <mxCell id="Z0NAfCsCloOLfnVxOBBv-60" value="" style="endArrow=none;html=1;rounded=0;entryX=0.5;entryY=0;entryDx=0;entryDy=0;exitX=0.5;exitY=1;exitDx=0;exitDy=0;" edge="1" parent="1" source="Z0NAfCsCloOLfnVxOBBv-47" target="Z0NAfCsCloOLfnVxOBBv-49">
          <mxGeometry relative="1" as="geometry">
            <mxPoint x="330" y="460" as="sourcePoint" />
            <mxPoint x="490" y="460" as="targetPoint" />
          </mxGeometry>
        </mxCell>
        <mxCell id="Z0NAfCsCloOLfnVxOBBv-62" value="" style="endArrow=none;html=1;rounded=0;entryX=1;entryY=0.5;entryDx=0;entryDy=0;exitX=0.5;exitY=0;exitDx=0;exitDy=0;" edge="1" parent="1" source="Z0NAfCsCloOLfnVxOBBv-14" target="Z0NAfCsCloOLfnVxOBBv-47">
          <mxGeometry relative="1" as="geometry">
            <mxPoint x="330" y="460" as="sourcePoint" />
            <mxPoint x="490" y="460" as="targetPoint" />
          </mxGeometry>
        </mxCell>
        <mxCell id="Z0NAfCsCloOLfnVxOBBv-63" value="N" style="resizable=0;html=1;whiteSpace=wrap;align=right;verticalAlign=bottom;" connectable="0" vertex="1" parent="Z0NAfCsCloOLfnVxOBBv-62">
          <mxGeometry x="1" relative="1" as="geometry" />
        </mxCell>
        <mxCell id="Z0NAfCsCloOLfnVxOBBv-64" value="" style="endArrow=none;html=1;rounded=0;entryX=0;entryY=0.5;entryDx=0;entryDy=0;exitX=0.5;exitY=1;exitDx=0;exitDy=0;" edge="1" parent="1" source="Z0NAfCsCloOLfnVxOBBv-1" target="Z0NAfCsCloOLfnVxOBBv-47">
          <mxGeometry relative="1" as="geometry">
            <mxPoint x="330" y="460" as="sourcePoint" />
            <mxPoint x="490" y="460" as="targetPoint" />
          </mxGeometry>
        </mxCell>
        <mxCell id="Z0NAfCsCloOLfnVxOBBv-65" value="M" style="text;html=1;strokeColor=none;fillColor=none;align=center;verticalAlign=middle;whiteSpace=wrap;rounded=0;" vertex="1" parent="1">
          <mxGeometry x="384" y="390" width="60" height="30" as="geometry" />
        </mxCell>
        <mxCell id="Z0NAfCsCloOLfnVxOBBv-66" value="&lt;h1&gt;&lt;b&gt;&lt;font color=&quot;#ffffff&quot; style=&quot;font-size: 20px; background-color: rgb(0, 0, 255);&quot;&gt;온라인상거래 ERD_정연재&lt;/font&gt;&lt;/b&gt;&lt;/h1&gt;" style="text;html=1;strokeColor=none;fillColor=none;align=center;verticalAlign=middle;whiteSpace=wrap;rounded=0;" vertex="1" parent="1">
          <mxGeometry x="40" y="90" width="260" height="30" as="geometry" />
        </mxCell>
      </root>
    </mxGraphModel>
  </diagram>
</mxfile>
